<svg xmlns="http://www.w3.org/2000/svg" data-logo="logo" viewBox="0 0 137 43">
        <g id="logogram" transform="translate(0, 1) rotate(0)"><path d="M0.452637 20.81C0.452637 9.76427 9.40694 0.809967 20.4526 0.809967H46.7026C57.7484 0.809967 66.7026 9.76427 66.7026 20.81V40.81H20.4526C9.40694 40.81 0.452637 31.8557 0.452637 20.81Z" fill="#4845D2" /><path d="M46.7026 8.30997H20.4526C13.5491 8.30997 7.95264 13.9064 7.95264 20.81C7.95264 27.7135 13.5491 33.31 20.4526 33.31H46.7026C53.6062 33.31 59.2026 27.7135 59.2026 20.81C59.2026 13.9064 53.6062 8.30997 46.7026 8.30997Z" fill="#A5B4FC" /><path d="M20.4526 27.06C23.9044 27.06 26.7026 24.2617 26.7026 20.81C26.7026 17.3582 23.9044 14.56 20.4526 14.56C17.0009 14.56 14.2026 17.3582 14.2026 20.81C14.2026 24.2617 17.0009 27.06 20.4526 27.06Z" fill="black" /><path d="M17.9526 19.56C18.643 19.56 19.2026 19.0003 19.2026 18.31C19.2026 17.6196 18.643 17.06 17.9526 17.06C17.2623 17.06 16.7026 17.6196 16.7026 18.31C16.7026 19.0003 17.2623 19.56 17.9526 19.56Z" fill="#D3D3D3" /><path d="M47.9526 27.06C51.4044 27.06 54.2026 24.2617 54.2026 20.81C54.2026 17.3582 51.4044 14.56 47.9526 14.56C44.5009 14.56 41.7026 17.3582 41.7026 20.81C41.7026 24.2617 44.5009 27.06 47.9526 27.06Z" fill="black" /><path d="M45.4526 19.56C46.143 19.56 46.7026 19.0003 46.7026 18.31C46.7026 17.6196 46.143 17.06 45.4526 17.06C44.7623 17.06 44.2026 17.6196 44.2026 18.31C44.2026 19.0003 44.7623 19.56 45.4526 19.56Z" fill="#D3D3D3" /></g>
        <g id="logotype" transform="translate(73, 11.5)"><path fill="#111111" d="M16.82 20.38L16.82 20.38Q13.90 20.38 11.78 19.18Q9.66 17.98 8.52 15.78Q7.38 13.57 7.38 10.55L7.38 10.55Q7.38 7.59 8.51 5.37Q9.64 3.15 11.71 1.90Q13.78 0.65 16.56 0.65L16.56 0.65Q18.44 0.65 20.06 1.25Q21.69 1.85 22.92 3.06Q24.15 4.26 24.84 6.07Q25.53 7.88 25.53 10.34L25.53 10.34L25.53 11.78L9.49 11.78L9.49 8.57L23.02 8.57L20.63 9.42Q20.63 7.93 20.18 6.83Q19.72 5.73 18.83 5.12Q17.93 4.52 16.60 4.52L16.60 4.52Q15.28 4.52 14.35 5.13Q13.42 5.75 12.94 6.80Q12.46 7.85 12.46 9.20L12.46 9.20L12.46 11.47Q12.46 13.13 13.02 14.26Q13.57 15.39 14.57 15.95Q15.57 16.51 16.90 16.51L16.90 16.51Q17.81 16.51 18.54 16.26Q19.28 16.00 19.80 15.50Q20.32 14.99 20.59 14.26L20.59 14.26L25.24 15.13Q24.78 16.70 23.64 17.89Q22.49 19.08 20.77 19.73Q19.06 20.38 16.82 20.38ZM37.97 20L32.15 20L25.10 0.89L30.56 0.89L33.77 10.81Q34.35 12.67 34.79 14.57Q35.22 16.46 35.68 18.50L35.68 18.50L34.59 18.50Q35.03 16.46 35.46 14.57Q35.89 12.67 36.47 10.81L36.47 10.81L39.65 0.89L45.03 0.89L37.97 20ZM54.10 20.38L54.10 20.38Q51.18 20.38 49.06 19.18Q46.94 17.98 45.81 15.78Q44.67 13.57 44.67 10.55L44.67 10.55Q44.67 7.59 45.80 5.37Q46.93 3.15 48.99 1.90Q51.06 0.65 53.85 0.65L53.85 0.65Q55.73 0.65 57.35 1.25Q58.97 1.85 60.20 3.06Q61.44 4.26 62.13 6.07Q62.82 7.88 62.82 10.34L62.82 10.34L62.82 11.78L46.77 11.78L46.77 8.57L60.31 8.57L57.91 9.42Q57.91 7.93 57.46 6.83Q57.01 5.73 56.11 5.12Q55.21 4.52 53.88 4.52L53.88 4.52Q52.57 4.52 51.63 5.13Q50.70 5.75 50.22 6.80Q49.75 7.85 49.75 9.20L49.75 9.20L49.75 11.47Q49.75 13.13 50.30 14.26Q50.86 15.39 51.86 15.95Q52.86 16.51 54.19 16.51L54.19 16.51Q55.10 16.51 55.83 16.26Q56.56 16.00 57.09 15.50Q57.61 14.99 57.88 14.26L57.88 14.26L62.53 15.13Q62.07 16.70 60.92 17.89Q59.78 19.08 58.06 19.73Q56.34 20.38 54.10 20.38Z" /></g>
        
      </svg>